# xmcd
#
# Track frame offsets:
#	150
#	18517
#	36612
#	58430
#	79142
#	96765
#	113917
#	129495
#	146127
#	161842
#	178682
#	197497
#	214845
#	230452
#
# Disc length: 3304 seconds
#
# Revision: 0
# Processed by: cddbd v1.5.1PL0 Copyright (c) Steve Scherf et al.
# Submitted via: audiograbber 1.83.01
#
DISCID=d10ce60e
DTITLE=Wishbone Ash - Me And My Guitar
DYEAR=1995
DGENRE=Rock
TTITLE0=Engine Overheat
TTITLE1=Me and My Guitar
TTITLE2=Hold On
TTITLE3=Streets Of Shame
TTITLE4=Angels Have Mercy
TTITLE5=People In Motion
TTITLE6=Don't Cry
TTITLE7=Love Is Blue
TTITLE8=Long Live The Night
TTITLE9=Rocket In My Pocket
TTITLE10=It's Only Love
TTITLE11=Don't You Mess
TTITLE12=Dreams (Searching For Answers)
TTITLE13=Perfect Timing
EXTD=
EXTT0=
EXTT1=
EXTT2=
EXTT3=
EXTT4=
EXTT5=
EXTT6=
EXTT7=
EXTT8=
EXTT9=
EXTT10=
EXTT11=
EXTT12=
EXTT13=
PLAYORDER=
